<svg xmlns="http://www.w3.org/2000/svg" width="390" height="844" viewBox="0 0 390 844" role="img" aria-label="阅读：正文排版与在电脑上继续">
<title>阅读：正文排版与在电脑上继续</title>
<style>
text{font-family:-apple-system, 'Segoe UI', 'PingFang SC', 'Microsoft YaHei', 'Helvetica Neue', sans-serif;}
.mono{font-family:'SF Mono', 'JetBrains Mono', Consolas, 'Liberation Mono', monospace;}
.t{fill:#E6E8EB;}.dim{fill:#9CA3AF;}.faint{fill:#6B7280;}
.acc{fill:#4D8DFF;}.onacc{fill:#0B1220;}.ok{fill:#2BD49B;}.warn{fill:#FFB04D;}.dang{fill:#FF6B6B;}
.quote{font-style:italic;fill:#9CA3AF;}
.cred{fill:#F54A45;}.corange{fill:#FF8A1E;}.cgreen{fill:#00B578;}.cblue{fill:#3370FF;}
</style>
<rect x="2" y="2" width="386" height="840" rx="44" fill="#17181A" stroke="#3A3C41" stroke-width="2"/>
<rect x="140" y="14" width="110" height="28" rx="14" fill="#0C0D0F" stroke="#2E3034"/>
<text x="30" y="42" class="t" font-size="13" text-anchor="start" font-weight="600">15:21</text>
<rect x="290" y="36" width="3.5" height="5" rx="1" fill="#E6E8EB"/>
<rect x="295.5" y="33" width="3.5" height="8" rx="1" fill="#E6E8EB"/>
<rect x="301" y="30" width="3.5" height="11" rx="1" fill="#E6E8EB"/>
<rect x="306.5" y="27" width="3.5" height="14" rx="1" fill="#E6E8EB"/>
<path d="M316 36 a9 9 0 0 1 13 0" fill="none" stroke="#E6E8EB" stroke-width="2" stroke-linecap="round"/>
<path d="M319 39.5 a4.5 4.5 0 0 1 7 0" fill="none" stroke="#E6E8EB" stroke-width="2" stroke-linecap="round"/>
<circle cx="322.5" cy="43" r="1.5" fill="#E6E8EB"/>
<rect x="336" y="28" width="24" height="12" rx="3.5" fill="none" stroke="#9CA3AF"/>
<rect x="337.5" y="29.5" width="17" height="9" rx="1.8" fill="#E6E8EB"/>
<rect x="361" y="31.5" width="2.5" height="5" rx="1.2" fill="#9CA3AF"/>
<g fill="none" stroke="#E6E8EB" stroke-width="2" stroke-linecap="round" stroke-linejoin="round"><path d="M28 78 L20 86 L28 94"/></g>
<text x="48" y="100" class="t" font-size="15" text-anchor="start" font-weight="600">阅读</text>
<path d="M300 84 H314 M304 92 H314 M308 100 H314" stroke="#9CA3AF" stroke-width="1.8" stroke-linecap="round"/>
<path d="M14 120 H376" stroke="#2E3034"/>
<rect x="14" y="120" width="96" height="2" fill="#4D8DFF"/>
<text x="24" y="164" class="t" font-size="24" text-anchor="start" font-weight="700">夜景机位备忘</text>
<text x="24" y="188" class="faint" font-size="12" text-anchor="start">拍摄现场 · 2026-10-08 15:20 · 本机</text>
<rect x="24" y="206" width="342" height="48" rx="8" fill="#22304A" stroke="#4D8DFF"/>
<g transform="translate(38,218)" fill="none" stroke="#4D8DFF" stroke-width="1.6" stroke-linecap="round" stroke-linejoin="round"><rect x="2.5" y="4" width="19" height="13" rx="2"/><path d="M8 21 H16"/><path d="M12 17.4 V21"/></g>
<text x="68" y="228" class="acc" font-size="14" text-anchor="start" font-weight="600">在电脑上继续</text>
<text x="68" y="246" class="faint" font-size="11" text-anchor="start">同步通道尚未打通，先在桌面端打开同名笔记</text>
<text x="24" y="296" class="t" font-size="20" text-anchor="start" font-weight="600">现场条件</text>
<text x="24" y="328" class="t" font-size="16" text-anchor="start">天桥西侧光比很大，护栏会反光。</text>
<text x="24" y="356" class="t" font-size="16" text-anchor="start">广角低机位，机身尽量贴住栏杆。</text>
<text x="24" y="384" class="t" font-size="16" text-anchor="start">备用机位：桥下人行道，长焦补特写。</text>
<rect x="24" y="420" width="3" height="80" rx="1.5" fill="#4D8DFF"/>
<text x="42" y="446" class="quote" font-size="15" text-anchor="start">导演要求：三个角度各拍一条，</text>
<text x="42" y="472" class="quote" font-size="15" text-anchor="start">第二条要保留环境声。</text>
<rect x="24" y="518" width="342" height="150" rx="8" fill="#2A2B2E" stroke="#3A3C41" stroke-dasharray="6 4"/>
<g fill="none" stroke="#9CA3AF" stroke-width="1.7" stroke-linecap="round" stroke-linejoin="round"><rect x="164" y="552" width="62" height="46" rx="5"/><circle cx="182" cy="568" r="5"/><path d="M166 592 L188 572 L200 583 L210 574 L224 588"/></g>
<text x="195" y="630" class="faint" font-size="12" text-anchor="middle">图片占位 · 机位示意</text>
<text x="24" y="700" class="t" font-size="16" text-anchor="start">回到电脑端可补充分镜与场记。</text>
<path d="M24 720 H366" stroke="#2E3034"/>
<text x="24" y="744" class="faint" font-size="11" text-anchor="start">本页共 6 块 · 本机已保存</text>
<rect x="145" y="820" width="100" height="5" rx="2.5" fill="#4B4F55"/>
</svg>
